<svg width="90" height="90" viewBox="0 0 90 90" fill="none" xmlns="http://www.w3.org/2000/svg">
<path d="M78.606 70.2311L56.25 32.971V14.0625H59.0625C59.8084 14.0625 60.5238 13.7662 61.0512 13.2387C61.5787 12.7113 61.875 11.9959 61.875 11.25C61.875 10.5041 61.5787 9.78871 61.0512 9.26126C60.5238 8.73382 59.8084 8.4375 59.0625 8.4375H30.9375C30.1916 8.4375 29.4762 8.73382 28.9488 9.26126C28.4213 9.78871 28.125 10.5041 28.125 11.25C28.125 11.9959 28.4213 12.7113 28.9488 13.2387C29.4762 13.7662 30.1916 14.0625 30.9375 14.0625H33.75V32.971L19.6267 56.5099C19.6113 56.5347 19.5964 56.5597 19.5818 56.5849L11.394 70.231C10.8819 71.0845 10.6054 72.0587 10.5928 73.0541C10.5802 74.0494 10.832 75.0303 11.3225 75.8965C11.8129 76.7628 12.5245 77.4833 13.3845 77.9846C14.2445 78.4859 15.2221 78.7501 16.2175 78.75H73.7825C74.7779 78.7501 75.7555 78.486 76.6155 77.9847C77.4755 77.4834 78.187 76.7628 78.6775 75.8966C79.1679 75.0304 79.4197 74.0496 79.4072 73.0542C79.3946 72.0589 79.1181 71.0847 78.606 70.2311ZM46.2578 56.547C41.247 54.0414 34.7733 51.7934 28.5705 52.5365L38.5732 35.8652C39.0978 34.991 39.375 33.9906 39.375 32.971V14.0625H50.625V32.971C50.625 33.9905 50.9021 34.9908 51.4267 35.865L65.0895 58.6365C60.4815 61.1367 54.0344 60.435 46.2578 56.547Z" fill="#F5F5F5"/>
</svg>
