<svg width="308" height="62" viewBox="0 0 308 62" fill="none" xmlns="http://www.w3.org/2000/svg">
<path d="M62.112 49.576C59.36 49.576 56.96 49.16 54.912 48.328C52.896 47.496 51.376 46.36 50.352 44.92L54.336 41.224C55.296 42.28 56.416 43.112 57.696 43.72C59.008 44.296 60.496 44.584 62.16 44.584C63.568 44.584 64.672 44.376 65.472 43.96C66.272 43.512 66.672 42.84 66.672 41.944C66.672 41.24 66.4 40.76 65.856 40.504C65.312 40.216 64.56 39.992 63.6 39.832L59.616 39.208C58.496 39.048 57.456 38.808 56.496 38.488C55.536 38.136 54.704 37.672 54 37.096C53.296 36.52 52.736 35.816 52.32 34.984C51.904 34.152 51.696 33.144 51.696 31.96C51.696 29.368 52.688 27.336 54.672 25.864C56.656 24.392 59.44 23.656 63.024 23.656C65.456 23.656 67.52 23.992 69.216 24.664C70.944 25.304 72.32 26.232 73.344 27.448L69.792 31.48C69.056 30.68 68.112 30.008 66.96 29.464C65.808 28.92 64.416 28.648 62.784 28.648C60.032 28.648 58.656 29.48 58.656 31.144C58.656 31.88 58.928 32.392 59.472 32.68C60.016 32.936 60.768 33.144 61.728 33.304L65.664 33.928C66.784 34.088 67.824 34.344 68.784 34.696C69.744 35.016 70.576 35.464 71.28 36.04C72.016 36.616 72.592 37.32 73.008 38.152C73.424 38.984 73.632 39.992 73.632 41.176C73.632 43.768 72.624 45.816 70.608 47.32C68.624 48.824 65.792 49.576 62.112 49.576ZM92.7173 21.064C91.1173 21.064 89.9973 20.744 89.3573 20.104C88.7493 19.432 88.4453 18.632 88.4453 17.704V16.312C88.4453 15.352 88.7493 14.552 89.3573 13.912C89.9973 13.272 91.1173 12.952 92.7173 12.952C94.3173 12.952 95.4213 13.272 96.0293 13.912C96.6693 14.552 96.9893 15.352 96.9893 16.312V17.704C96.9893 18.632 96.6693 19.432 96.0293 20.104C95.4213 20.744 94.3173 21.064 92.7173 21.064ZM81.2933 43.48H89.1653V29.752H81.2933V24.232H96.2693V43.48H103.565V49H81.2933V43.48ZM121.883 49C119.323 49 117.419 48.328 116.171 46.984C114.923 45.64 114.299 43.928 114.299 41.848V29.752H107.579V24.232H111.947C113.003 24.232 113.755 24.024 114.203 23.608C114.651 23.192 114.875 22.424 114.875 21.304V15.496H121.403V24.232H131.051V29.752H121.403V43.48H131.051V49H121.883ZM149.416 49.576C145.256 49.576 142.104 48.424 139.96 46.12C137.816 43.816 136.744 40.68 136.744 36.712C136.744 34.696 137.016 32.888 137.56 31.288C138.136 29.656 138.936 28.28 139.96 27.16C141.016 26.008 142.28 25.144 143.752 24.568C145.256 23.96 146.936 23.656 148.792 23.656C150.648 23.656 152.312 23.96 153.784 24.568C155.256 25.144 156.504 25.976 157.528 27.064C158.552 28.152 159.336 29.48 159.88 31.048C160.456 32.584 160.744 34.312 160.744 36.232V38.344H143.8V38.776C143.8 40.376 144.296 41.672 145.288 42.664C146.28 43.624 147.736 44.104 149.656 44.104C151.128 44.104 152.392 43.832 153.448 43.288C154.504 42.712 155.416 41.96 156.184 41.032L160.024 45.208C159.064 46.392 157.72 47.416 155.992 48.28C154.264 49.144 152.072 49.576 149.416 49.576ZM148.84 28.744C147.304 28.744 146.072 29.224 145.144 30.184C144.248 31.112 143.8 32.376 143.8 33.976V34.36H153.784V33.976C153.784 32.344 153.336 31.064 152.44 30.136C151.576 29.208 150.376 28.744 148.84 28.744ZM206.018 49.576C203.266 49.576 200.866 49.16 198.818 48.328C196.802 47.496 195.282 46.36 194.258 44.92L198.242 41.224C199.202 42.28 200.322 43.112 201.602 43.72C202.914 44.296 204.402 44.584 206.066 44.584C207.474 44.584 208.578 44.376 209.378 43.96C210.178 43.512 210.578 42.84 210.578 41.944C210.578 41.24 210.306 40.76 209.762 40.504C209.218 40.216 208.466 39.992 207.506 39.832L203.522 39.208C202.402 39.048 201.362 38.808 200.402 38.488C199.442 38.136 198.61 37.672 197.906 37.096C197.202 36.52 196.642 35.816 196.226 34.984C195.81 34.152 195.602 33.144 195.602 31.96C195.602 29.368 196.594 27.336 198.578 25.864C200.562 24.392 203.346 23.656 206.93 23.656C209.362 23.656 211.426 23.992 213.122 24.664C214.85 25.304 216.226 26.232 217.25 27.448L213.698 31.48C212.962 30.68 212.018 30.008 210.866 29.464C209.714 28.92 208.322 28.648 206.69 28.648C203.938 28.648 202.562 29.48 202.562 31.144C202.562 31.88 202.834 32.392 203.378 32.68C203.922 32.936 204.674 33.144 205.634 33.304L209.57 33.928C210.69 34.088 211.73 34.344 212.69 34.696C213.65 35.016 214.482 35.464 215.186 36.04C215.922 36.616 216.498 37.32 216.914 38.152C217.33 38.984 217.538 39.992 217.538 41.176C217.538 43.768 216.53 45.816 214.514 47.32C212.53 48.824 209.698 49.576 206.018 49.576ZM244.064 49C242.592 49 241.408 48.632 240.512 47.896C239.616 47.128 239.088 46.04 238.928 44.632H238.688C238.24 46.264 237.344 47.496 236 48.328C234.688 49.16 233.072 49.576 231.152 49.576C228.752 49.576 226.816 48.936 225.344 47.656C223.904 46.344 223.184 44.52 223.184 42.184C223.184 39.592 224.128 37.672 226.016 36.424C227.904 35.176 230.672 34.552 234.32 34.552H238.304V33.304C238.304 31.832 237.952 30.728 237.248 29.992C236.576 29.224 235.424 28.84 233.792 28.84C232.288 28.84 231.072 29.128 230.144 29.704C229.216 30.28 228.416 31.032 227.743 31.96L223.855 28.504C224.688 27.096 225.984 25.944 227.743 25.048C229.536 24.12 231.824 23.656 234.608 23.656C238 23.656 240.64 24.44 242.528 26.008C244.448 27.544 245.408 29.88 245.408 33.016V43.864H248.144V49H244.064ZM233.84 44.92C235.088 44.92 236.144 44.616 237.008 44.008C237.872 43.4 238.304 42.52 238.304 41.368V38.392H234.512C231.6 38.392 230.144 39.368 230.144 41.32V42.28C230.144 43.144 230.48 43.8 231.152 44.248C231.824 44.696 232.72 44.92 233.84 44.92ZM277.453 51.496C277.453 54.12 276.349 56.056 274.141 57.304C271.933 58.552 268.461 59.176 263.725 59.176C261.357 59.176 259.405 59.032 257.869 58.744C256.333 58.488 255.101 58.104 254.173 57.592C253.277 57.08 252.637 56.472 252.253 55.768C251.901 55.064 251.725 54.296 251.725 53.464C251.725 52.056 252.141 50.984 252.973 50.248C253.805 49.544 254.973 49 256.477 48.616V48.328C255.421 48.008 254.573 47.56 253.933 46.984C253.325 46.376 253.021 45.528 253.021 44.44C253.021 43.224 253.421 42.328 254.221 41.752C255.053 41.176 256.141 40.728 257.485 40.408V40.12C256.013 39.416 254.861 38.424 254.029 37.144C253.229 35.864 252.829 34.312 252.829 32.488C252.829 31.048 253.085 29.784 253.597 28.696C254.109 27.576 254.829 26.648 255.757 25.912C256.717 25.176 257.853 24.616 259.165 24.232C260.477 23.848 261.949 23.656 263.581 23.656C265.149 23.656 266.605 23.832 267.949 24.184V22.84C267.949 21.88 268.285 21.08 268.957 20.44C269.629 19.8 270.557 19.48 271.741 19.48H276.109V24.664H270.157V25.096C271.501 25.8 272.541 26.776 273.277 28.024C274.045 29.24 274.429 30.728 274.429 32.488C274.429 33.928 274.173 35.192 273.661 36.28C273.149 37.368 272.413 38.296 271.453 39.064C270.493 39.8 269.341 40.36 267.997 40.744C266.685 41.128 265.213 41.32 263.581 41.32C262.845 41.32 262.141 41.288 261.469 41.224C260.797 41.128 260.157 41 259.549 40.84C259.197 41.032 258.893 41.272 258.637 41.56C258.413 41.848 258.301 42.216 258.301 42.664C258.301 43.048 258.397 43.352 258.589 43.576C258.781 43.8 259.037 43.976 259.357 44.104C259.709 44.2 260.109 44.264 260.557 44.296C261.005 44.328 261.469 44.344 261.949 44.344H267.613C269.373 44.344 270.877 44.52 272.125 44.872C273.373 45.224 274.397 45.72 275.197 46.36C275.997 47 276.573 47.752 276.925 48.616C277.277 49.48 277.453 50.44 277.453 51.496ZM270.733 52.024C270.733 51.384 270.477 50.872 269.965 50.488C269.453 50.136 268.477 49.96 267.037 49.96H258.541C257.901 50.504 257.581 51.176 257.581 51.976C257.581 52.744 257.901 53.368 258.541 53.848C259.213 54.36 260.333 54.616 261.901 54.616H266.077C267.709 54.616 268.893 54.392 269.629 53.944C270.365 53.496 270.733 52.856 270.733 52.024ZM263.581 36.808C265.021 36.808 266.061 36.456 266.701 35.752C267.373 35.048 267.709 34.152 267.709 33.064V31.912C267.709 30.824 267.373 29.928 266.701 29.224C266.061 28.52 265.021 28.168 263.581 28.168C262.173 28.168 261.149 28.52 260.509 29.224C259.869 29.928 259.549 30.824 259.549 31.912V33.064C259.549 34.152 259.869 35.048 260.509 35.752C261.149 36.456 262.173 36.808 263.581 36.808ZM293.322 49.576C289.162 49.576 286.01 48.424 283.866 46.12C281.722 43.816 280.65 40.68 280.65 36.712C280.65 34.696 280.922 32.888 281.466 31.288C282.042 29.656 282.842 28.28 283.866 27.16C284.922 26.008 286.186 25.144 287.658 24.568C289.162 23.96 290.842 23.656 292.698 23.656C294.554 23.656 296.218 23.96 297.69 24.568C299.162 25.144 300.41 25.976 301.434 27.064C302.458 28.152 303.242 29.48 303.786 31.048C304.362 32.584 304.65 34.312 304.65 36.232V38.344H287.706V38.776C287.706 40.376 288.202 41.672 289.194 42.664C290.186 43.624 291.642 44.104 293.562 44.104C295.034 44.104 296.298 43.832 297.354 43.288C298.41 42.712 299.322 41.96 300.09 41.032L303.93 45.208C302.97 46.392 301.626 47.416 299.898 48.28C298.17 49.144 295.978 49.576 293.322 49.576ZM292.746 28.744C291.21 28.744 289.978 29.224 289.05 30.184C288.154 31.112 287.706 32.376 287.706 33.976V34.36H297.69V33.976C297.69 32.344 297.242 31.064 296.346 30.136C295.482 29.208 294.282 28.744 292.746 28.744Z" fill="black"/>
<path d="M177.525 49.576C175.733 49.576 174.437 49.192 173.637 48.424C172.869 47.624 172.485 46.68 172.485 45.592V43.912C172.485 42.824 172.869 41.896 173.637 41.128C174.437 40.328 175.733 39.928 177.525 39.928C179.317 39.928 180.597 40.328 181.365 41.128C182.165 41.896 182.565 42.824 182.565 43.912V45.592C182.565 46.68 182.165 47.624 181.365 48.424C180.597 49.192 179.317 49.576 177.525 49.576Z" fill="#60BE25"/>
<path d="M41.9232 49.4566L30 29.5845V19.5H31.5C31.8978 19.5 32.2794 19.342 32.5607 19.0607C32.842 18.7794 33 18.3978 33 18C33 17.6022 32.842 17.2206 32.5607 16.9393C32.2794 16.658 31.8978 16.5 31.5 16.5H16.5C16.1022 16.5 15.7206 16.658 15.4393 16.9393C15.158 17.2206 15 17.6022 15 18C15 18.3978 15.158 18.7794 15.4393 19.0607C15.7206 19.342 16.1022 19.5 16.5 19.5H18V29.5845L10.4676 42.1386C10.4593 42.1518 10.4514 42.1651 10.4436 42.1786L6.07681 49.4565C5.80365 49.9117 5.65619 50.4313 5.64949 50.9622C5.64278 51.493 5.77707 52.0162 6.03865 52.4782C6.30023 52.9401 6.67973 53.3244 7.13839 53.5918C7.59705 53.8592 8.11845 54 8.64935 54H39.3506C39.8815 54 40.4029 53.8592 40.8616 53.5918C41.3202 53.3245 41.6997 52.9402 41.9613 52.4782C42.2229 52.0162 42.3572 51.4931 42.3505 50.9622C42.3438 50.4314 42.1963 49.9118 41.9232 49.4566ZM24.6708 42.1584C21.9984 40.8221 18.5457 39.6232 15.2376 40.0195L20.5724 31.1281C20.8522 30.6619 21 30.1283 21 29.5845V19.5H27V29.5845C27 30.1283 27.1478 30.6618 27.4276 31.128L34.7144 43.2728C32.2568 44.6062 28.8183 44.232 24.6708 42.1584Z" fill="#60BE25"/>
</svg>
