<svg width="196" height="119" viewBox="0 0 196 119" fill="none" xmlns="http://www.w3.org/2000/svg">
<path d="M103.935 92.8612L74.375 43.595V18.5938H78.0937C79.08 18.5938 80.0259 18.202 80.7233 17.5046C81.4207 16.8072 81.8125 15.8613 81.8125 14.875C81.8125 13.8887 81.4207 12.9428 80.7233 12.2454C80.0259 11.548 79.08 11.1563 78.0937 11.1562H40.9063C39.92 11.1563 38.9741 11.548 38.2767 12.2454C37.5793 12.9428 37.1875 13.8887 37.1875 14.875C37.1875 15.8613 37.5793 16.8072 38.2767 17.5046C38.9741 18.202 39.92 18.5938 40.9063 18.5938H44.625V43.595L25.9509 74.7186C25.9304 74.7515 25.9107 74.7844 25.8914 74.8178L15.0654 92.8609C14.3882 93.9895 14.0226 95.2776 14.006 96.5937C13.9894 97.9098 14.3223 99.2067 14.9708 100.352C15.6193 101.497 16.5602 102.45 17.6973 103.113C18.8344 103.776 20.127 104.125 21.4432 104.125H97.5568C98.873 104.125 100.166 103.776 101.303 103.113C102.44 102.45 103.381 101.498 104.029 100.352C104.678 99.2069 105.011 97.91 104.994 96.5939C104.977 95.2778 104.612 93.9898 103.935 92.8612ZM61.163 74.7677C54.5377 71.4547 45.978 68.4824 37.7765 69.4649L51.0023 47.4218C51.696 46.2659 52.0625 44.9431 52.0625 43.595V18.5938H66.9375V43.595C66.9375 44.943 67.3039 46.2657 67.9975 47.4216L86.0628 77.5305C79.9699 80.8363 71.4454 79.9085 61.163 74.7677Z" fill="#60BE25"/>
<path d="M86.408 38.384C84.5733 38.384 82.9733 38.1067 81.608 37.552C80.264 36.9973 79.2507 36.24 78.568 35.28L81.224 32.816C81.864 33.52 82.6107 34.0747 83.464 34.48C84.3387 34.864 85.3307 35.056 86.44 35.056C87.3787 35.056 88.1147 34.9173 88.648 34.64C89.1813 34.3413 89.448 33.8933 89.448 33.296C89.448 32.8267 89.2667 32.5067 88.904 32.336C88.5413 32.144 88.04 31.9947 87.4 31.888L84.744 31.472C83.9973 31.3653 83.304 31.2053 82.664 30.992C82.024 30.7573 81.4693 30.448 81 30.064C80.5307 29.68 80.1573 29.2107 79.88 28.656C79.6027 28.1013 79.464 27.4293 79.464 26.64C79.464 24.912 80.1253 23.5573 81.448 22.576C82.7707 21.5947 84.6267 21.104 87.016 21.104C88.6373 21.104 90.0133 21.328 91.144 21.776C92.296 22.2027 93.2133 22.8213 93.896 23.632L91.528 26.32C91.0373 25.7867 90.408 25.3387 89.64 24.976C88.872 24.6133 87.944 24.432 86.856 24.432C85.0213 24.432 84.104 24.9867 84.104 26.096C84.104 26.5867 84.2853 26.928 84.648 27.12C85.0107 27.2907 85.512 27.4293 86.152 27.536L88.776 27.952C89.5227 28.0587 90.216 28.2293 90.856 28.464C91.496 28.6773 92.0507 28.976 92.52 29.36C93.0107 29.744 93.3947 30.2133 93.672 30.768C93.9493 31.3227 94.088 31.9947 94.088 32.784C94.088 34.512 93.416 35.8773 92.072 36.88C90.7493 37.8827 88.8613 38.384 86.408 38.384ZM106.812 19.376C105.745 19.376 104.998 19.1627 104.572 18.736C104.166 18.288 103.964 17.7547 103.964 17.136V16.208C103.964 15.568 104.166 15.0347 104.572 14.608C104.998 14.1813 105.745 13.968 106.812 13.968C107.878 13.968 108.614 14.1813 109.02 14.608C109.446 15.0347 109.66 15.568 109.66 16.208V17.136C109.66 17.7547 109.446 18.288 109.02 18.736C108.614 19.1627 107.878 19.376 106.812 19.376ZM99.1955 34.32H104.444V25.168H99.1955V21.488H109.18V34.32H114.044V38H99.1955V34.32ZM126.255 38C124.548 38 123.279 37.552 122.447 36.656C121.615 35.76 121.199 34.6187 121.199 33.232V25.168H116.719V21.488H119.631C120.335 21.488 120.836 21.3493 121.135 21.072C121.434 20.7947 121.583 20.2827 121.583 19.536V15.664H125.935V21.488H132.367V25.168H125.935V34.32H132.367V38H126.255ZM144.611 38.384C141.837 38.384 139.736 37.616 138.307 36.08C136.877 34.544 136.163 32.4533 136.163 29.808C136.163 28.464 136.344 27.2587 136.707 26.192C137.091 25.104 137.624 24.1867 138.307 23.44C139.011 22.672 139.853 22.096 140.835 21.712C141.837 21.3067 142.957 21.104 144.195 21.104C145.432 21.104 146.541 21.3067 147.523 21.712C148.504 22.096 149.336 22.6507 150.019 23.376C150.701 24.1013 151.224 24.9867 151.587 26.032C151.971 27.056 152.163 28.208 152.163 29.488V30.896H140.867V31.184C140.867 32.2507 141.197 33.1147 141.859 33.776C142.52 34.416 143.491 34.736 144.771 34.736C145.752 34.736 146.595 34.5547 147.299 34.192C148.003 33.808 148.611 33.3067 149.123 32.688L151.683 35.472C151.043 36.2613 150.147 36.944 148.995 37.52C147.843 38.096 146.381 38.384 144.611 38.384ZM144.227 24.496C143.203 24.496 142.381 24.816 141.763 25.456C141.165 26.0747 140.867 26.9173 140.867 27.984V28.24H147.523V27.984C147.523 26.896 147.224 26.0427 146.627 25.424C146.051 24.8053 145.251 24.496 144.227 24.496Z" fill="black"/>
<path d="M103.056 57.288C101.68 57.288 100.48 57.08 99.456 56.664C98.448 56.248 97.688 55.68 97.176 54.96L99.168 53.112C99.648 53.64 100.208 54.056 100.848 54.36C101.504 54.648 102.248 54.792 103.08 54.792C103.784 54.792 104.336 54.688 104.736 54.48C105.136 54.256 105.336 53.92 105.336 53.472C105.336 53.12 105.2 52.88 104.928 52.752C104.656 52.608 104.28 52.496 103.8 52.416L101.808 52.104C101.248 52.024 100.728 51.904 100.248 51.744C99.768 51.568 99.352 51.336 99 51.048C98.648 50.76 98.368 50.408 98.16 49.992C97.952 49.576 97.848 49.072 97.848 48.48C97.848 47.184 98.344 46.168 99.336 45.432C100.328 44.696 101.72 44.328 103.512 44.328C104.728 44.328 105.76 44.496 106.608 44.832C107.472 45.152 108.16 45.616 108.672 46.224L106.896 48.24C106.528 47.84 106.056 47.504 105.48 47.232C104.904 46.96 104.208 46.824 103.392 46.824C102.016 46.824 101.328 47.24 101.328 48.072C101.328 48.44 101.464 48.696 101.736 48.84C102.008 48.968 102.384 49.072 102.864 49.152L104.832 49.464C105.392 49.544 105.912 49.672 106.392 49.848C106.872 50.008 107.288 50.232 107.64 50.52C108.008 50.808 108.296 51.16 108.504 51.576C108.712 51.992 108.816 52.496 108.816 53.088C108.816 54.384 108.312 55.408 107.304 56.16C106.312 56.912 104.896 57.288 103.056 57.288ZM122.079 57C121.343 57 120.751 56.816 120.303 56.448C119.855 56.064 119.591 55.52 119.511 54.816H119.391C119.167 55.632 118.719 56.248 118.047 56.664C117.391 57.08 116.583 57.288 115.623 57.288C114.423 57.288 113.455 56.968 112.719 56.328C111.999 55.672 111.639 54.76 111.639 53.592C111.639 52.296 112.111 51.336 113.055 50.712C113.999 50.088 115.383 49.776 117.207 49.776H119.199V49.152C119.199 48.416 119.023 47.864 118.671 47.496C118.335 47.112 117.759 46.92 116.943 46.92C116.191 46.92 115.583 47.064 115.119 47.352C114.655 47.64 114.255 48.016 113.919 48.48L111.975 46.752C112.391 46.048 113.039 45.472 113.919 45.024C114.815 44.56 115.959 44.328 117.351 44.328C119.047 44.328 120.367 44.72 121.311 45.504C122.271 46.272 122.751 47.44 122.751 49.008V54.432H124.119V57H122.079ZM116.967 54.96C117.591 54.96 118.119 54.808 118.551 54.504C118.983 54.2 119.199 53.76 119.199 53.184V51.696H117.303C115.847 51.696 115.119 52.184 115.119 53.16V53.64C115.119 54.072 115.287 54.4 115.623 54.624C115.959 54.848 116.407 54.96 116.967 54.96ZM138.773 58.248C138.773 59.56 138.221 60.528 137.117 61.152C136.013 61.776 134.277 62.088 131.909 62.088C130.725 62.088 129.749 62.016 128.981 61.872C128.213 61.744 127.597 61.552 127.133 61.296C126.685 61.04 126.365 60.736 126.173 60.384C125.997 60.032 125.909 59.648 125.909 59.232C125.909 58.528 126.117 57.992 126.533 57.624C126.949 57.272 127.533 57 128.285 56.808V56.664C127.757 56.504 127.333 56.28 127.013 55.992C126.709 55.688 126.557 55.264 126.557 54.72C126.557 54.112 126.757 53.664 127.157 53.376C127.573 53.088 128.117 52.864 128.789 52.704V52.56C128.053 52.208 127.477 51.712 127.061 51.072C126.661 50.432 126.461 49.656 126.461 48.744C126.461 48.024 126.589 47.392 126.845 46.848C127.101 46.288 127.461 45.824 127.925 45.456C128.405 45.088 128.973 44.808 129.629 44.616C130.285 44.424 131.021 44.328 131.837 44.328C132.621 44.328 133.349 44.416 134.021 44.592V43.92C134.021 43.44 134.189 43.04 134.525 42.72C134.861 42.4 135.325 42.24 135.917 42.24H138.101V44.832H135.125V45.048C135.797 45.4 136.317 45.888 136.685 46.512C137.069 47.12 137.261 47.864 137.261 48.744C137.261 49.464 137.133 50.096 136.877 50.64C136.621 51.184 136.253 51.648 135.773 52.032C135.293 52.4 134.717 52.68 134.045 52.872C133.389 53.064 132.653 53.16 131.837 53.16C131.469 53.16 131.117 53.144 130.781 53.112C130.445 53.064 130.125 53 129.821 52.92C129.645 53.016 129.493 53.136 129.365 53.28C129.253 53.424 129.197 53.608 129.197 53.832C129.197 54.024 129.245 54.176 129.341 54.288C129.437 54.4 129.565 54.488 129.725 54.552C129.901 54.6 130.101 54.632 130.325 54.648C130.549 54.664 130.781 54.672 131.021 54.672H133.853C134.733 54.672 135.485 54.76 136.109 54.936C136.733 55.112 137.245 55.36 137.645 55.68C138.045 56 138.333 56.376 138.509 56.808C138.685 57.24 138.773 57.72 138.773 58.248ZM135.413 58.512C135.413 58.192 135.285 57.936 135.029 57.744C134.773 57.568 134.285 57.48 133.565 57.48H129.317C128.997 57.752 128.837 58.088 128.837 58.488C128.837 58.872 128.997 59.184 129.317 59.424C129.653 59.68 130.213 59.808 130.997 59.808H133.085C133.901 59.808 134.493 59.696 134.861 59.472C135.229 59.248 135.413 58.928 135.413 58.512ZM131.837 50.904C132.557 50.904 133.077 50.728 133.397 50.376C133.733 50.024 133.901 49.576 133.901 49.032V48.456C133.901 47.912 133.733 47.464 133.397 47.112C133.077 46.76 132.557 46.584 131.837 46.584C131.133 46.584 130.621 46.76 130.301 47.112C129.981 47.464 129.821 47.912 129.821 48.456V49.032C129.821 49.576 129.981 50.024 130.301 50.376C130.621 50.728 131.133 50.904 131.837 50.904ZM146.708 57.288C144.628 57.288 143.052 56.712 141.98 55.56C140.908 54.408 140.372 52.84 140.372 50.856C140.372 49.848 140.508 48.944 140.78 48.144C141.068 47.328 141.468 46.64 141.98 46.08C142.508 45.504 143.14 45.072 143.876 44.784C144.628 44.48 145.468 44.328 146.396 44.328C147.324 44.328 148.156 44.48 148.892 44.784C149.628 45.072 150.252 45.488 150.764 46.032C151.276 46.576 151.668 47.24 151.94 48.024C152.228 48.792 152.372 49.656 152.372 50.616V51.672H143.9V51.888C143.9 52.688 144.148 53.336 144.644 53.832C145.14 54.312 145.868 54.552 146.828 54.552C147.564 54.552 148.196 54.416 148.724 54.144C149.252 53.856 149.708 53.48 150.092 53.016L152.012 55.104C151.532 55.696 150.86 56.208 149.996 56.64C149.132 57.072 148.036 57.288 146.708 57.288ZM146.42 46.872C145.652 46.872 145.036 47.112 144.572 47.592C144.124 48.056 143.9 48.688 143.9 49.488V49.68H148.892V49.488C148.892 48.672 148.668 48.032 148.22 47.568C147.788 47.104 147.188 46.872 146.42 46.872Z" fill="black"/>
</svg>
